<mxfile host="app.diagrams.net" modified="2024-03-13T15:45:17.657Z" agent="Mozilla/5.0 (Windows NT 10.0; Win64; x64) AppleWebKit/537.36 (KHTML, like Gecko) Chrome/122.0.0.0 Safari/537.36" etag="H7iP8Lxi_HCp7KIDz1bK" version="24.0.5" type="device">
  <diagram name="Page-1" id="cbpPXX-dyT5s-ZYUZ89M">
    <mxGraphModel dx="1877" dy="-600" grid="1" gridSize="10" guides="1" tooltips="1" connect="1" arrows="1" fold="1" page="1" pageScale="1" pageWidth="827" pageHeight="1169" math="0" shadow="0">
      <root>
        <mxCell id="0" />
        <mxCell id="1" parent="0" />
        <mxCell id="shT0HkmOFGitXh8zyB-2-85" value="Prefixes" style="graphMlID=n0;shape=swimlane;startSize=20;fillColor=#b7b69e;strokeColor=#000000;strokeWidth=1.0;align=right;spacingRight=10;fontStyle=1" parent="1" vertex="1">
          <mxGeometry x="-50" y="1260" width="610" height="110" as="geometry">
            <mxRectangle x="-550" y="110" width="100" height="30" as="alternateBounds" />
          </mxGeometry>
        </mxCell>
        <UserObject label="&lt;b style=&quot;border-color: var(--border-color);&quot;&gt;foaf:&amp;nbsp;&lt;/b&gt;&lt;span style=&quot;border-color: var(--border-color); background-color: initial;&quot;&gt;http://xmlns.com/foaf/0.1/&lt;br&gt;&lt;b style=&quot;border-color: var(--border-color);&quot;&gt;fs&lt;/b&gt;:https://w3id.org/framester/data/framestercore/&lt;br&gt;&lt;b&gt;aff&lt;/b&gt;:&lt;a style=&quot;text-decoration-line: none; color: rgb(0, 43, 184); background: none rgb(255, 255, 255); font-family: sans-serif; font-size: 12.7px;&quot; href=&quot;http://ontologydesignpatterns.org/wiki/index.php?title=Special:ClickHandler&amp;amp;link=https://w3id.org/affectedBy&amp;amp;message=OWL%20building%20block&amp;amp;from_page_id=4464&amp;amp;update=&quot;&gt;https://w3id.org/affectedBy#&lt;/a&gt;&lt;br&gt;&lt;b&gt;cbo:&lt;/b&gt;https://github.com/corrado877/CognitiveBiasOntologies/blob/main/Insensitivity_to_sample_size&lt;br&gt;&lt;/span&gt;" link="http://www.w3.org/2000/01/rdf-schema#" id="shT0HkmOFGitXh8zyB-2-86">
          <mxCell style="text;whiteSpace=wrap;html=1;" parent="shT0HkmOFGitXh8zyB-2-85" vertex="1">
            <mxGeometry x="1" y="30" width="640" height="170" as="geometry" />
          </mxCell>
        </UserObject>
        <mxCell id="shT0HkmOFGitXh8zyB-2-88" value="ODPs and Ontologies Used" style="graphMlID=n0;shape=swimlane;startSize=20;fillColor=#b7b69e;strokeColor=#000000;strokeWidth=1.0;align=right;spacingRight=10;fontStyle=1" parent="1" vertex="1">
          <mxGeometry x="650" y="1250" width="320" height="80" as="geometry" />
        </mxCell>
        <mxCell id="shT0HkmOFGitXh8zyB-2-89" value="&lt;ul&gt;&lt;li style=&quot;border-color: var(--border-color);&quot;&gt;&lt;span style=&quot;background-color: initial;&quot;&gt;AffectedBy&lt;/span&gt;&lt;br&gt;&lt;/li&gt;&lt;li style=&quot;border-color: var(--border-color);&quot;&gt;Cogntive Characteristic Ontology&lt;/li&gt;&lt;/ul&gt;" style="text;html=1;strokeColor=none;fillColor=none;align=left;verticalAlign=middle;whiteSpace=wrap;rounded=0;" parent="shT0HkmOFGitXh8zyB-2-88" vertex="1">
          <mxGeometry x="-20" y="-20" width="270" height="142" as="geometry" />
        </mxCell>
        <mxCell id="ixtPq8T3jQu9ciznEWjq-1" value="foaf: Person" style="graphMlID=n4;shape=rect;rounded=1;arcsize=30;fillColor=#ffff00;strokeColor=#000000;strokeWidth=1.0;fontStyle=1" parent="1" vertex="1">
          <mxGeometry x="781.01" y="1514" width="94.97" height="40" as="geometry" />
        </mxCell>
        <mxCell id="ixtPq8T3jQu9ciznEWjq-4" value="fs:Sequence&#xa;(game reviews)" style="graphMlID=n4;shape=rect;rounded=1;arcsize=30;fillColor=#ffff00;strokeColor=#000000;strokeWidth=1.0;fontStyle=1" parent="1" vertex="1">
          <mxGeometry x="469.01" y="1510" width="140.49" height="44" as="geometry" />
        </mxCell>
        <mxCell id="ixtPq8T3jQu9ciznEWjq-7" value="fs:Event&#xa;(Game acquisition)" style="graphMlID=n4;shape=rect;rounded=1;arcsize=30;fillColor=#ffff00;strokeColor=#000000;strokeWidth=1.0;fontStyle=1" parent="1" vertex="1">
          <mxGeometry x="240" y="1594" width="130" height="44" as="geometry" />
        </mxCell>
        <mxCell id="Gp_MZLsWmdcRPW0NS3Ks-1" value="" style="graphMlID=e0;rounded=0;endArrow=block;strokeColor=#000080;strokeWidth=1.0;startArrow=oval;startFill=1;endFill=1;exitX=0;exitY=0.5;exitDx=0;exitDy=0;entryX=1;entryY=0.5;entryDx=0;entryDy=0;" edge="1" parent="1" source="ixtPq8T3jQu9ciznEWjq-1" target="ixtPq8T3jQu9ciznEWjq-4">
          <mxGeometry relative="1" as="geometry">
            <mxPoint x="400" y="1470.0818375889874" as="sourcePoint" />
            <mxPoint x="551" y="1470" as="targetPoint" />
          </mxGeometry>
        </mxCell>
        <mxCell id="Gp_MZLsWmdcRPW0NS3Ks-2" value="&lt;font face=&quot;dialog&quot; color=&quot;#000080&quot;&gt;&lt;span style=&quot;font-size: 16px; background-color: rgb(248, 249, 250);&quot;&gt;&lt;b&gt;aff:&lt;/b&gt;AffectedBy&lt;/span&gt;&lt;/font&gt;" style="text;html=1;align=center;verticalAlign=middle;resizable=0;points=[];labelBackgroundColor=#ffffff;" vertex="1" connectable="0" parent="Gp_MZLsWmdcRPW0NS3Ks-1">
          <mxGeometry x="-0.0174" y="2" relative="1" as="geometry">
            <mxPoint as="offset" />
          </mxGeometry>
        </mxCell>
        <mxCell id="Gp_MZLsWmdcRPW0NS3Ks-3" value="" style="graphMlID=e0;rounded=0;endArrow=block;strokeColor=#000080;strokeWidth=1.0;startArrow=oval;startFill=1;endFill=1;exitX=0.5;exitY=1;exitDx=0;exitDy=0;entryX=1;entryY=0.5;entryDx=0;entryDy=0;" edge="1" parent="1" source="ixtPq8T3jQu9ciznEWjq-1" target="ixtPq8T3jQu9ciznEWjq-7">
          <mxGeometry relative="1" as="geometry">
            <mxPoint x="640" y="1650.0818375889874" as="sourcePoint" />
            <mxPoint x="791" y="1650" as="targetPoint" />
          </mxGeometry>
        </mxCell>
        <mxCell id="Gp_MZLsWmdcRPW0NS3Ks-4" value="&lt;span style=&quot;color: rgb(0 , 0 , 128) ; font-family: &amp;quot;dialog&amp;quot; ; font-size: 16px ; background-color: rgb(248 , 249 , 250)&quot;&gt;&lt;b&gt;cbo&lt;/b&gt;:hasBiasedOpinion&lt;/span&gt;" style="text;html=1;align=center;verticalAlign=middle;resizable=0;points=[];labelBackgroundColor=#ffffff;" vertex="1" connectable="0" parent="Gp_MZLsWmdcRPW0NS3Ks-3">
          <mxGeometry x="-0.0174" y="2" relative="1" as="geometry">
            <mxPoint as="offset" />
          </mxGeometry>
        </mxCell>
      </root>
    </mxGraphModel>
  </diagram>
</mxfile>
